<svg width="20" height="20" viewBox="0 0 20 20" fill="none" xmlns="http://www.w3.org/2000/svg">
<g id="annotation">
<path id="Vector (Stroke)" fill-rule="evenodd" clip-rule="evenodd" d="M2.15484 2.98816C2.4674 2.6756 2.89133 2.5 3.33335 2.5H16.6667C17.1087 2.5 17.5326 2.67559 17.8452 2.98816C18.1578 3.30072 18.3334 3.72464 18.3334 4.16667V12.5C18.3334 12.942 18.1578 13.3659 17.8452 13.6785C17.5326 13.9911 17.1087 14.1667 16.6667 14.1667H12.8782L10.2105 17.2154C10.0523 17.3963 9.82366 17.5 9.58335 17.5C9.34305 17.5 9.11445 17.3963 8.95621 17.2154L6.28855 14.1667H3.33335C2.89133 14.1667 2.4674 13.9911 2.15484 13.6785C1.84228 13.366 1.66669 12.942 1.66669 12.5V4.16667C1.66669 3.72464 1.84228 3.30072 2.15484 2.98816ZM16.6667 4.16667L3.33335 4.16667V12.5H6.66669C6.90699 12.5 7.13559 12.6037 7.29383 12.7846L9.58335 15.4012L11.8729 12.7846C12.0311 12.6037 12.2597 12.5 12.5 12.5H16.6667V4.16667ZM5.00002 6.66667C5.00002 6.20643 5.37312 5.83333 5.83335 5.83333H13.3334C13.7936 5.83333 14.1667 6.20643 14.1667 6.66667C14.1667 7.1269 13.7936 7.5 13.3334 7.5H5.83335C5.37312 7.5 5.00002 7.1269 5.00002 6.66667ZM5.00002 10C5.00002 9.53976 5.37312 9.16667 5.83335 9.16667H10C10.4603 9.16667 10.8334 9.53976 10.8334 10C10.8334 10.4602 10.4603 10.8333 10 10.8333H5.83335C5.37312 10.8333 5.00002 10.4602 5.00002 10Z" fill="#FF820F"/>
</g>
</svg>
