<svg width="20" height="20" viewBox="0 0 20 20" fill="none" xmlns="http://www.w3.org/2000/svg">
<g id="message-3-line">
<path id="Vector" d="M1.66669 7.49478C1.66669 4.73624 3.89714 2.5 6.66724 2.5H13.3328C16.0945 2.5 18.3334 4.74565 18.3334 7.49478V17.5H6.66724C3.90551 17.5 1.66669 15.2543 1.66669 12.5052V7.49478ZM16.6667 15.8333V7.49478C16.6667 5.66283 15.1708 4.16667 13.3328 4.16667H6.66724C4.8205 4.16667 3.33335 5.65382 3.33335 7.49478V12.5052C3.33335 14.3372 4.82929 15.8333 6.66724 15.8333H16.6667ZM11.6667 9.16667H13.3334V10.8333H11.6667V9.16667ZM6.66669 9.16667H8.33335V10.8333H6.66669V9.16667Z" fill="#999999"/>
</g>
</svg>
