<svg width="200" height="36" viewBox="0 0 200 36" fill="none" xmlns="http://www.w3.org/2000/svg">
<path d="M0.38916 17.5V0.700039H8.66916C10.5412 0.700039 12.1892 1.04404 13.6132 1.73204C15.0372 2.40404 16.1492 3.36404 16.9492 4.61204C17.7492 5.86004 18.1492 7.34804 18.1492 9.07604C18.1492 10.82 17.7492 12.324 16.9492 13.588C16.1492 14.836 15.0372 15.804 13.6132 16.492C12.1892 17.164 10.5412 17.5 8.66916 17.5H0.38916ZM6.05316 13.084H8.42916C9.22916 13.084 9.92516 12.932 10.5172 12.628C11.1252 12.324 11.5972 11.876 11.9332 11.284C12.2692 10.676 12.4372 9.94004 12.4372 9.07604C12.4372 8.22804 12.2692 7.50804 11.9332 6.91604C11.5972 6.32404 11.1252 5.87604 10.5172 5.57204C9.92516 5.26804 9.22916 5.11604 8.42916 5.11604H6.05316V13.084Z" fill="white"/>
<path d="M33.8253 17.884C32.4653 17.884 31.2013 17.668 30.0333 17.236C28.8813 16.804 27.8813 16.196 27.0333 15.412C26.1853 14.612 25.5213 13.676 25.0413 12.604C24.5773 11.532 24.3453 10.364 24.3453 9.10004C24.3453 7.82004 24.5773 6.65204 25.0413 5.59604C25.5213 4.52404 26.1853 3.59604 27.0333 2.81204C27.8813 2.01204 28.8813 1.39604 30.0333 0.96404C31.2013 0.53204 32.4653 0.31604 33.8253 0.31604C35.2013 0.31604 36.4653 0.53204 37.6173 0.96404C38.7693 1.39604 39.7693 2.01204 40.6173 2.81204C41.4653 3.59604 42.1213 4.52404 42.5853 5.59604C43.0653 6.65204 43.3053 7.82004 43.3053 9.10004C43.3053 10.364 43.0653 11.532 42.5853 12.604C42.1213 13.676 41.4653 14.612 40.6173 15.412C39.7693 16.196 38.7693 16.804 37.6173 17.236C36.4653 17.668 35.2013 17.884 33.8253 17.884ZM33.8253 13.3C34.3533 13.3 34.8413 13.204 35.2893 13.012C35.7533 12.82 36.1533 12.548 36.4893 12.196C36.8413 11.828 37.1133 11.388 37.3053 10.876C37.4973 10.348 37.5933 9.75604 37.5933 9.10004C37.5933 8.44404 37.4973 7.86004 37.3053 7.34804C37.1133 6.82004 36.8413 6.38004 36.4893 6.02804C36.1533 5.66004 35.7533 5.38004 35.2893 5.18804C34.8413 4.99604 34.3533 4.90004 33.8253 4.90004C33.2973 4.90004 32.8013 4.99604 32.3373 5.18804C31.8893 5.38004 31.4893 5.66004 31.1373 6.02804C30.8013 6.38004 30.5373 6.82004 30.3453 7.34804C30.1533 7.86004 30.0573 8.44404 30.0573 9.10004C30.0573 9.75604 30.1533 10.348 30.3453 10.876C30.5373 11.388 30.8013 11.828 31.1373 12.196C31.4893 12.548 31.8893 12.82 32.3373 13.012C32.8013 13.204 33.2973 13.3 33.8253 13.3Z" fill="white"/>
<path d="M50.161 17.5V0.700039H55.825V17.5H50.161Z" fill="white"/>
<path d="M63.3517 17.5V0.700039H68.0077L76.5517 10.924H74.3917V0.700039H79.9117V17.5H75.2557L66.7117 7.27604H68.8717V17.5H63.3517Z" fill="white"/>
<path d="M96.1527 17.884C94.7927 17.884 93.5367 17.676 92.3847 17.26C91.2487 16.828 90.2567 16.22 89.4087 15.436C88.5767 14.652 87.9287 13.724 87.4647 12.652C87.0007 11.58 86.7687 10.396 86.7687 9.10004C86.7687 7.80404 87.0007 6.62004 87.4647 5.54804C87.9287 4.47604 88.5847 3.54804 89.4327 2.76404C90.2807 1.98004 91.2807 1.38004 92.4327 0.96404C93.6007 0.53204 94.8807 0.31604 96.2727 0.31604C97.9367 0.31604 99.4167 0.59604 100.713 1.15604C102.025 1.71604 103.105 2.51604 103.953 3.55604L100.329 6.74804C99.8007 6.14004 99.2247 5.68404 98.6007 5.38004C97.9927 5.06004 97.3127 4.90004 96.5607 4.90004C95.9367 4.90004 95.3687 4.99604 94.8567 5.18804C94.3607 5.38004 93.9367 5.66004 93.5847 6.02804C93.2327 6.39604 92.9607 6.83604 92.7687 7.34804C92.5767 7.86004 92.4807 8.44404 92.4807 9.10004C92.4807 9.72404 92.5767 10.3 92.7687 10.828C92.9607 11.34 93.2327 11.78 93.5847 12.148C93.9367 12.516 94.3527 12.804 94.8327 13.012C95.3287 13.204 95.8807 13.3 96.4887 13.3C97.1287 13.3 97.7527 13.196 98.3607 12.988C98.9687 12.764 99.6167 12.388 100.305 11.86L103.473 15.748C102.449 16.436 101.281 16.964 99.9687 17.332C98.6567 17.7 97.3847 17.884 96.1527 17.884ZM98.5527 15.028V8.64404H103.473V15.748L98.5527 15.028Z" fill="white"/>
<path d="M122.681 17.5V0.700039H130.961C132.833 0.700039 134.481 1.04404 135.905 1.73204C137.329 2.40404 138.441 3.36404 139.241 4.61204C140.041 5.86004 140.441 7.34804 140.441 9.07604C140.441 10.82 140.041 12.324 139.241 13.588C138.441 14.836 137.329 15.804 135.905 16.492C134.481 17.164 132.833 17.5 130.961 17.5H122.681ZM128.345 13.084H130.721C131.521 13.084 132.217 12.932 132.809 12.628C133.417 12.324 133.889 11.876 134.225 11.284C134.561 10.676 134.729 9.94004 134.729 9.07604C134.729 8.22804 134.561 7.50804 134.225 6.91604C133.889 6.32404 133.417 5.87604 132.809 5.57204C132.217 5.26804 131.521 5.11604 130.721 5.11604H128.345V13.084Z" fill="white"/>
<path d="M156.117 17.884C154.757 17.884 153.493 17.668 152.325 17.236C151.173 16.804 150.173 16.196 149.325 15.412C148.477 14.612 147.813 13.676 147.333 12.604C146.869 11.532 146.637 10.364 146.637 9.10004C146.637 7.82004 146.869 6.65204 147.333 5.59604C147.813 4.52404 148.477 3.59604 149.325 2.81204C150.173 2.01204 151.173 1.39604 152.325 0.96404C153.493 0.53204 154.757 0.31604 156.117 0.31604C157.493 0.31604 158.757 0.53204 159.909 0.96404C161.061 1.39604 162.061 2.01204 162.909 2.81204C163.757 3.59604 164.413 4.52404 164.877 5.59604C165.357 6.65204 165.597 7.82004 165.597 9.10004C165.597 10.364 165.357 11.532 164.877 12.604C164.413 13.676 163.757 14.612 162.909 15.412C162.061 16.196 161.061 16.804 159.909 17.236C158.757 17.668 157.493 17.884 156.117 17.884ZM156.117 13.3C156.645 13.3 157.133 13.204 157.581 13.012C158.045 12.82 158.445 12.548 158.781 12.196C159.133 11.828 159.405 11.388 159.597 10.876C159.789 10.348 159.885 9.75604 159.885 9.10004C159.885 8.44404 159.789 7.86004 159.597 7.34804C159.405 6.82004 159.133 6.38004 158.781 6.02804C158.445 5.66004 158.045 5.38004 157.581 5.18804C157.133 4.99604 156.645 4.90004 156.117 4.90004C155.589 4.90004 155.093 4.99604 154.629 5.18804C154.181 5.38004 153.781 5.66004 153.429 6.02804C153.093 6.38004 152.829 6.82004 152.637 7.34804C152.445 7.86004 152.349 8.44404 152.349 9.10004C152.349 9.75604 152.445 10.348 152.637 10.876C152.829 11.388 153.093 11.828 153.429 12.196C153.781 12.548 154.181 12.82 154.629 13.012C155.093 13.204 155.589 13.3 156.117 13.3Z" fill="white"/>
<path d="M172.453 17.5V0.700039H178.117V17.5H172.453Z" fill="white"/>
<path d="M189.292 17.5V5.09204H184.372V0.700039H199.876V5.09204H194.956V17.5H189.292Z" fill="white"/>
<path d="M31.7658 35.5V29.9H32.4218L34.9338 34.132H34.5818L37.0618 29.9H37.7178L37.7258 35.5H36.9578L36.9498 31.108H37.1338L34.9258 34.82H34.5578L32.3338 31.108H32.5338V35.5H31.7658Z" fill="white"/>
<path d="M42.5585 35.5L45.0945 29.9H45.8865L48.4305 35.5H47.5905L45.3265 30.348H45.6465L43.3825 35.5H42.5585ZM43.6385 34.1L43.8545 33.46H47.0065L47.2385 34.1H43.6385Z" fill="white"/>
<path d="M53.9698 34.148L53.9298 33.172L57.1058 29.9H58.0178L55.5618 32.492L55.1138 32.988L53.9698 34.148ZM53.2658 35.5V29.9H54.0658V35.5H53.2658ZM57.2338 35.5L54.9378 32.828L55.4738 32.236L58.1698 35.5H57.2338Z" fill="white"/>
<path d="M63.7438 32.316H66.6238V32.996H63.7438V32.316ZM63.8158 34.804H67.0798V35.5H63.0158V29.9H66.9678V30.596H63.8158V34.804Z" fill="white"/>
<path d="M78.5237 35.5V29.9H79.3237V35.5H78.5237Z" fill="white"/>
<path d="M86.1122 35.5V30.596H84.1922V29.9H88.8242V30.596H86.9042V35.5H86.1122Z" fill="white"/>
<path d="M99.844 35.5V29.9H102.028C102.519 29.9 102.937 29.9774 103.284 30.132C103.631 30.2867 103.897 30.5107 104.084 30.804C104.271 31.0974 104.364 31.4467 104.364 31.852C104.364 32.2574 104.271 32.6067 104.084 32.9C103.897 33.188 103.631 33.412 103.284 33.572C102.937 33.7267 102.519 33.804 102.028 33.804H100.284L100.644 33.428V35.5H99.844ZM100.644 33.508L100.284 33.108H102.004C102.516 33.108 102.903 32.9987 103.164 32.78C103.431 32.5614 103.564 32.252 103.564 31.852C103.564 31.452 103.431 31.1427 103.164 30.924C102.903 30.7054 102.516 30.596 102.004 30.596H100.284L100.644 30.196V33.508Z" fill="white"/>
<path d="M112.145 35.564C111.719 35.564 111.321 35.492 110.953 35.348C110.591 35.204 110.276 35.004 110.009 34.748C109.743 34.4867 109.535 34.1827 109.385 33.836C109.236 33.4894 109.161 33.1107 109.161 32.7C109.161 32.2894 109.236 31.9107 109.385 31.564C109.535 31.2174 109.743 30.916 110.009 30.66C110.276 30.3987 110.591 30.196 110.953 30.052C111.316 29.908 111.713 29.836 112.145 29.836C112.572 29.836 112.964 29.908 113.321 30.052C113.684 30.1907 113.999 30.3907 114.265 30.652C114.537 30.908 114.745 31.2094 114.889 31.556C115.039 31.9027 115.113 32.284 115.113 32.7C115.113 33.116 115.039 33.4974 114.889 33.844C114.745 34.1907 114.537 34.4947 114.265 34.756C113.999 35.012 113.684 35.212 113.321 35.356C112.964 35.4947 112.572 35.564 112.145 35.564ZM112.145 34.852C112.455 34.852 112.74 34.7987 113.001 34.692C113.268 34.5854 113.497 34.436 113.689 34.244C113.887 34.0467 114.039 33.8174 114.145 33.556C114.257 33.2947 114.313 33.0094 114.313 32.7C114.313 32.3907 114.257 32.1054 114.145 31.844C114.039 31.5827 113.887 31.356 113.689 31.164C113.497 30.9667 113.268 30.8147 113.001 30.708C112.74 30.6014 112.455 30.548 112.145 30.548C111.831 30.548 111.54 30.6014 111.273 30.708C111.012 30.8147 110.783 30.9667 110.585 31.164C110.388 31.356 110.233 31.5827 110.121 31.844C110.015 32.1054 109.961 32.3907 109.961 32.7C109.961 33.0094 110.015 33.2947 110.121 33.556C110.233 33.8174 110.388 34.0467 110.585 34.244C110.783 34.436 111.012 34.5854 111.273 34.692C111.54 34.7987 111.831 34.852 112.145 34.852Z" fill="white"/>
<path d="M121.968 35.564C121.541 35.564 121.133 35.5 120.744 35.372C120.355 35.2387 120.048 35.068 119.824 34.86L120.12 34.236C120.333 34.4227 120.605 34.5774 120.936 34.7C121.267 34.8227 121.611 34.884 121.968 34.884C122.293 34.884 122.557 34.8467 122.76 34.772C122.963 34.6974 123.112 34.596 123.208 34.468C123.304 34.3347 123.352 34.1854 123.352 34.02C123.352 33.828 123.288 33.6734 123.16 33.556C123.037 33.4387 122.875 33.3454 122.672 33.276C122.475 33.2014 122.256 33.1374 122.016 33.084C121.776 33.0307 121.533 32.9694 121.288 32.9C121.048 32.8254 120.827 32.732 120.624 32.62C120.427 32.508 120.267 32.3587 120.144 32.172C120.021 31.98 119.96 31.7347 119.96 31.436C119.96 31.148 120.035 30.884 120.184 30.644C120.339 30.3987 120.573 30.204 120.888 30.06C121.208 29.9107 121.613 29.836 122.104 29.836C122.429 29.836 122.752 29.8787 123.072 29.964C123.392 30.0494 123.669 30.172 123.904 30.332L123.64 30.972C123.4 30.812 123.147 30.6974 122.88 30.628C122.613 30.5534 122.355 30.516 122.104 30.516C121.789 30.516 121.531 30.556 121.328 30.636C121.125 30.716 120.976 30.8227 120.88 30.956C120.789 31.0894 120.744 31.2387 120.744 31.404C120.744 31.6014 120.805 31.7587 120.928 31.876C121.056 31.9934 121.219 32.0867 121.416 32.156C121.619 32.2254 121.84 32.2894 122.08 32.348C122.32 32.4014 122.56 32.4627 122.8 32.532C123.045 32.6014 123.267 32.692 123.464 32.804C123.667 32.916 123.829 33.0654 123.952 33.252C124.075 33.4387 124.136 33.6787 124.136 33.972C124.136 34.2547 124.059 34.5187 123.904 34.764C123.749 35.004 123.509 35.1987 123.184 35.348C122.864 35.492 122.459 35.564 121.968 35.564Z" fill="white"/>
<path d="M130.937 35.564C130.51 35.564 130.102 35.5 129.713 35.372C129.324 35.2387 129.017 35.068 128.793 34.86L129.089 34.236C129.302 34.4227 129.574 34.5774 129.905 34.7C130.236 34.8227 130.58 34.884 130.937 34.884C131.262 34.884 131.526 34.8467 131.729 34.772C131.932 34.6974 132.081 34.596 132.177 34.468C132.273 34.3347 132.321 34.1854 132.321 34.02C132.321 33.828 132.257 33.6734 132.129 33.556C132.006 33.4387 131.844 33.3454 131.641 33.276C131.444 33.2014 131.225 33.1374 130.985 33.084C130.745 33.0307 130.502 32.9694 130.257 32.9C130.017 32.8254 129.796 32.732 129.593 32.62C129.396 32.508 129.236 32.3587 129.113 32.172C128.99 31.98 128.929 31.7347 128.929 31.436C128.929 31.148 129.004 30.884 129.153 30.644C129.308 30.3987 129.542 30.204 129.857 30.06C130.177 29.9107 130.582 29.836 131.073 29.836C131.398 29.836 131.721 29.8787 132.041 29.964C132.361 30.0494 132.638 30.172 132.873 30.332L132.609 30.972C132.369 30.812 132.116 30.6974 131.849 30.628C131.582 30.5534 131.324 30.516 131.073 30.516C130.758 30.516 130.5 30.556 130.297 30.636C130.094 30.716 129.945 30.8227 129.849 30.956C129.758 31.0894 129.713 31.2387 129.713 31.404C129.713 31.6014 129.774 31.7587 129.897 31.876C130.025 31.9934 130.188 32.0867 130.385 32.156C130.588 32.2254 130.809 32.2894 131.049 32.348C131.289 32.4014 131.529 32.4627 131.769 32.532C132.014 32.6014 132.236 32.692 132.433 32.804C132.636 32.916 132.798 33.0654 132.921 33.252C133.044 33.4387 133.105 33.6787 133.105 33.972C133.105 34.2547 133.028 34.5187 132.873 34.764C132.718 35.004 132.478 35.1987 132.153 35.348C131.833 35.492 131.428 35.564 130.937 35.564Z" fill="white"/>
<path d="M138.274 35.5V29.9H139.074V35.5H138.274Z" fill="white"/>
<path d="M144.75 35.5V29.9H147.262C147.908 29.9 148.404 30.0307 148.75 30.292C149.097 30.548 149.27 30.9 149.27 31.348C149.27 31.652 149.201 31.908 149.062 32.116C148.929 32.324 148.748 32.484 148.518 32.596C148.289 32.708 148.041 32.764 147.774 32.764L147.918 32.524C148.238 32.524 148.521 32.58 148.766 32.692C149.012 32.804 149.206 32.9694 149.35 33.188C149.494 33.4014 149.566 33.668 149.566 33.988C149.566 34.468 149.385 34.8414 149.022 35.108C148.665 35.3694 148.132 35.5 147.422 35.5H144.75ZM145.55 34.852H147.39C147.833 34.852 148.172 34.7774 148.406 34.628C148.641 34.4787 148.758 34.244 148.758 33.924C148.758 33.5987 148.641 33.3614 148.406 33.212C148.172 33.0627 147.833 32.988 147.39 32.988H145.478V32.34H147.19C147.596 32.34 147.91 32.2654 148.134 32.116C148.358 31.9667 148.47 31.7427 148.47 31.444C148.47 31.1454 148.358 30.9214 148.134 30.772C147.91 30.6227 147.596 30.548 147.19 30.548H145.55V34.852Z" fill="white"/>
<path d="M154.805 35.5V29.9H155.605V34.804H158.637V35.5H154.805Z" fill="white"/>
<path d="M164.283 32.316H167.163V32.996H164.283V32.316ZM164.355 34.804H167.619V35.5H163.555V29.9H167.507V30.596H164.355V34.804Z" fill="white"/>
</svg>
