<svg width="20" height="20" viewBox="0 0 20 20" fill="none" xmlns="http://www.w3.org/2000/svg">
<g id="time-line">
<path id="Vector" d="M10 18.3333C5.39765 18.3333 1.66669 14.6023 1.66669 9.99996C1.66669 5.39758 5.39765 1.66663 10 1.66663C14.6024 1.66663 18.3334 5.39758 18.3334 9.99996C18.3334 14.6023 14.6024 18.3333 10 18.3333ZM10 16.6666C13.6819 16.6666 16.6667 13.6819 16.6667 9.99996C16.6667 6.31806 13.6819 3.33329 10 3.33329C6.31812 3.33329 3.33335 6.31806 3.33335 9.99996C3.33335 13.6819 6.31812 16.6666 10 16.6666ZM10.8334 9.99996H14.1667V11.6666H9.16669V5.83329H10.8334V9.99996Z" fill="#999999"/>
</g>
</svg>
